<?xml version="1.0" encoding="UTF-8"?>
<svg xmlns="http://www.w3.org/2000/svg"
     xmlns:xlink="http://www.w3.org/1999/xlink"
     xmlns:gadfly="http://www.gadflyjl.org/ns"
     version="1.2"
     width="152.4mm" height="101.6mm" viewBox="0 0 152.4 101.6"
     stroke="none"
     fill="#000000"
     stroke-width="0.3"
     font-size="3.88"
>
<defs>
  <marker id="arrow" markerWidth="15" markerHeight="7" refX="5" refY="3.5" orient="auto" markerUnits="strokeWidth">
    <path d="M0,0 L15,3.5 L0,7 z" stroke="context-stroke" fill="context-stroke"/>
  </marker>
</defs>
<g class="plotroot xscalable yscalable" id="img-aed862f8-1">
  <g font-size="3.88" font-family="'PT Sans','Helvetica Neue','Helvetica',sans-serif" fill="#564A55" stroke="#000000" stroke-opacity="0.000" id="img-aed862f8-2">
    <g transform="translate(79.17,89.99)">
      <g class="primitive">
        <text text-anchor="middle" dy="0.6em">Particle diameter (nm)</text>
      </g>
    </g>
  </g>
  <g class="guide xlabels" font-size="2.82" font-family="'PT Sans Caption','Helvetica Neue','Helvetica',sans-serif" fill="#6C606B" id="img-aed862f8-3">
    <g transform="translate(2.47,83.32)">
      <g class="primitive">
        <text text-anchor="middle" dy="0.6em"></text>
      </g>
    </g>
    <g transform="translate(13.79,83.32)">
      <g class="primitive">
        <text text-anchor="middle" dy="0.6em"></text>
      </g>
    </g>
    <g transform="translate(20.41,83.32)">
      <g class="primitive">
        <text text-anchor="middle" dy="0.6em"></text>
      </g>
    </g>
    <g transform="translate(25.11,83.32)">
      <g class="primitive">
        <text text-anchor="middle" dy="0.6em"></text>
      </g>
    </g>
    <g transform="translate(28.76,83.32)">
      <g class="primitive">
        <text text-anchor="middle" dy="0.6em">5</text>
      </g>
    </g>
    <g transform="translate(31.73,83.32)">
      <g class="primitive">
        <text text-anchor="middle" dy="0.6em"></text>
      </g>
    </g>
    <g transform="translate(34.25,83.32)">
      <g class="primitive">
        <text text-anchor="middle" dy="0.6em"></text>
      </g>
    </g>
    <g transform="translate(36.43,83.32)">
      <g class="primitive">
        <text text-anchor="middle" dy="0.6em"></text>
      </g>
    </g>
    <g transform="translate(38.36,83.32)">
      <g class="primitive">
        <text text-anchor="middle" dy="0.6em"></text>
      </g>
    </g>
    <g transform="translate(40.08,83.32)">
      <g class="primitive">
        <text text-anchor="middle" dy="0.6em">10</text>
      </g>
    </g>
    <g transform="translate(51.4,83.32)">
      <g class="primitive">
        <text text-anchor="middle" dy="0.6em">20</text>
      </g>
    </g>
    <g transform="translate(58.02,83.32)">
      <g class="primitive">
        <text text-anchor="middle" dy="0.6em"></text>
      </g>
    </g>
    <g transform="translate(62.72,83.32)">
      <g class="primitive">
        <text text-anchor="middle" dy="0.6em"></text>
      </g>
    </g>
    <g transform="translate(66.36,83.32)">
      <g class="primitive">
        <text text-anchor="middle" dy="0.6em">50</text>
      </g>
    </g>
    <g transform="translate(69.34,83.32)">
      <g class="primitive">
        <text text-anchor="middle" dy="0.6em"></text>
      </g>
    </g>
    <g transform="translate(71.86,83.32)">
      <g class="primitive">
        <text text-anchor="middle" dy="0.6em"></text>
      </g>
    </g>
    <g transform="translate(74.04,83.32)">
      <g class="primitive">
        <text text-anchor="middle" dy="0.6em"></text>
      </g>
    </g>
    <g transform="translate(75.96,83.32)">
      <g class="primitive">
        <text text-anchor="middle" dy="0.6em"></text>
      </g>
    </g>
    <g transform="translate(77.68,83.32)">
      <g class="primitive">
        <text text-anchor="middle" dy="0.6em">100</text>
      </g>
    </g>
    <g transform="translate(89,83.32)">
      <g class="primitive">
        <text text-anchor="middle" dy="0.6em">200</text>
      </g>
    </g>
    <g transform="translate(95.63,83.32)">
      <g class="primitive">
        <text text-anchor="middle" dy="0.6em"></text>
      </g>
    </g>
    <g transform="translate(100.32,83.32)">
      <g class="primitive">
        <text text-anchor="middle" dy="0.6em"></text>
      </g>
    </g>
    <g transform="translate(103.97,83.32)">
      <g class="primitive">
        <text text-anchor="middle" dy="0.6em">500</text>
      </g>
    </g>
    <g transform="translate(106.95,83.32)">
      <g class="primitive">
        <text text-anchor="middle" dy="0.6em"></text>
      </g>
    </g>
    <g transform="translate(109.46,83.32)">
      <g class="primitive">
        <text text-anchor="middle" dy="0.6em"></text>
      </g>
    </g>
    <g transform="translate(111.65,83.32)">
      <g class="primitive">
        <text text-anchor="middle" dy="0.6em"></text>
      </g>
    </g>
    <g transform="translate(113.57,83.32)">
      <g class="primitive">
        <text text-anchor="middle" dy="0.6em"></text>
      </g>
    </g>
    <g transform="translate(115.29,83.32)">
      <g class="primitive">
        <text text-anchor="middle" dy="0.6em">1000</text>
      </g>
    </g>
    <g transform="translate(126.61,83.32)">
      <g class="primitive">
        <text text-anchor="middle" dy="0.6em">2000</text>
      </g>
    </g>
    <g transform="translate(133.23,83.32)">
      <g class="primitive">
        <text text-anchor="middle" dy="0.6em"></text>
      </g>
    </g>
    <g transform="translate(137.93,83.32)">
      <g class="primitive">
        <text text-anchor="middle" dy="0.6em"></text>
      </g>
    </g>
    <g transform="translate(141.58,83.32)">
      <g class="primitive">
        <text text-anchor="middle" dy="0.6em"></text>
      </g>
    </g>
    <g transform="translate(144.55,83.32)">
      <g class="primitive">
        <text text-anchor="middle" dy="0.6em"></text>
      </g>
    </g>
    <g transform="translate(147.07,83.32)">
      <g class="primitive">
        <text text-anchor="middle" dy="0.6em"></text>
      </g>
    </g>
    <g transform="translate(149.25,83.32)">
      <g class="primitive">
        <text text-anchor="middle" dy="0.6em"></text>
      </g>
    </g>
    <g transform="translate(151.18,83.32)">
      <g class="primitive">
        <text text-anchor="middle" dy="0.6em"></text>
      </g>
    </g>
    <g transform="translate(152.9,83.32)">
      <g class="primitive">
        <text text-anchor="middle" dy="0.6em"></text>
      </g>
    </g>
  </g>
  <g class="guide colorkey" id="img-aed862f8-4">
    <g fill="#4C404B" font-size="2.82" font-family="'PT Sans','Helvetica Neue','Helvetica',sans-serif" id="img-aed862f8-5">
      <g transform="translate(139.05,42.84)" id="img-aed862f8-6" class="color_SMPS1">
        <g class="primitive">
          <text dy="0.35em">SMPS1</text>
        </g>
      </g>
      <g transform="translate(139.05,46.46)" id="img-aed862f8-7" class="color_SMPS2">
        <g class="primitive">
          <text dy="0.35em">SMPS2</text>
        </g>
      </g>
      <g transform="translate(139.05,50.09)" id="img-aed862f8-8" class="color_OPC">
        <g class="primitive">
          <text dy="0.35em">OPC</text>
        </g>
      </g>
      <g transform="translate(139.05,53.72)" id="img-aed862f8-9" class="color_Model">
        <g class="primitive">
          <text dy="0.35em">Model</text>
        </g>
      </g>
    </g>
    <g fill-opacity="1" id="img-aed862f8-10">
      <g transform="translate(137.14,42.84)" id="img-aed862f8-11" fill="#CD950C" class="color_SMPS1" stroke="#FFFFFF">
        <path d="M-0.91,-0.91 L 0.91 -0.91 0.91 0.91 -0.91 0.91 z" class="primitive"/>
      </g>
      <g transform="translate(137.14,46.46)" id="img-aed862f8-12" fill="#8B0000" class="color_SMPS2" stroke="#FFFFFF">
        <path d="M-0.91,-0.91 L 0.91 -0.91 0.91 0.91 -0.91 0.91 z" class="primitive"/>
      </g>
      <g transform="translate(137.14,50.09)" id="img-aed862f8-13" fill="#4F94CD" class="color_OPC" stroke="#FFFFFF">
        <path d="M-0.91,-0.91 L 0.91 -0.91 0.91 0.91 -0.91 0.91 z" class="primitive"/>
      </g>
      <g transform="translate(137.14,53.72)" id="img-aed862f8-14" fill="#000000" class="color_Model" stroke="#FFFFFF">
        <path d="M-0.91,-0.91 L 0.91 -0.91 0.91 0.91 -0.91 0.91 z" class="primitive"/>
      </g>
    </g>
    <g fill="#362A35" font-size="3.88" font-family="'PT Sans','Helvetica Neue','Helvetica',sans-serif" stroke="#000000" stroke-opacity="0.000" id="img-aed862f8-15">
      <g transform="translate(136.23,39.02)" id="img-aed862f8-16">
        <g class="primitive">
          <text dy="-0em">Color</text>
        </g>
      </g>
    </g>
  </g>
  <g clip-path="url(#img-aed862f8-17)">
    <g id="img-aed862f8-18">
      <g pointer-events="visible" fill="#000000" fill-opacity="0.000" stroke="#000000" stroke-opacity="0.000" class="guide background" id="img-aed862f8-19">
        <g transform="translate(79.17,46.46)" id="img-aed862f8-20">
          <path d="M-56.06,-35.85 L 56.06 -35.85 56.06 35.85 -56.06 35.85 z" class="primitive"/>
        </g>
      </g>
      <g class="guide ygridlines xfixed" stroke-dasharray="0.5,0.5" stroke-width="0.2" stroke="#D0D0E0" id="img-aed862f8-21">
        <g transform="translate(79.17,80.32)" id="img-aed862f8-22">
          <path fill="none" d="M-56.06,0 L 56.06 0" class="primitive"/>
        </g>
        <g transform="translate(79.17,63.39)" id="img-aed862f8-23">
          <path fill="none" d="M-56.06,0 L 56.06 0" class="primitive"/>
        </g>
        <g transform="translate(79.17,46.46)" id="img-aed862f8-24">
          <path fill="none" d="M-56.06,0 L 56.06 0" class="primitive"/>
        </g>
        <g transform="translate(79.17,29.54)" id="img-aed862f8-25">
          <path fill="none" d="M-56.06,0 L 56.06 0" class="primitive"/>
        </g>
        <g transform="translate(79.17,12.61)" id="img-aed862f8-26">
          <path fill="none" d="M-56.06,0 L 56.06 0" class="primitive"/>
        </g>
      </g>
      <g class="guide xgridlines yfixed" stroke-dasharray="0.5,0.5" stroke-width="0.2" stroke="#D0D0E0" id="img-aed862f8-27">
        <g transform="translate(2.47,46.46)" id="img-aed862f8-28">
          <path fill="none" d="M0,-35.85 L 0 35.85" class="primitive"/>
        </g>
        <g transform="translate(13.79,46.46)" id="img-aed862f8-29">
          <path fill="none" d="M0,-35.85 L 0 35.85" class="primitive"/>
        </g>
        <g transform="translate(20.41,46.46)" id="img-aed862f8-30">
          <path fill="none" d="M0,-35.85 L 0 35.85" class="primitive"/>
        </g>
        <g transform="translate(25.11,46.46)" id="img-aed862f8-31">
          <path fill="none" d="M0,-35.85 L 0 35.85" class="primitive"/>
        </g>
        <g transform="translate(28.76,46.46)" id="img-aed862f8-32">
          <path fill="none" d="M0,-35.85 L 0 35.85" class="primitive"/>
        </g>
        <g transform="translate(31.73,46.46)" id="img-aed862f8-33">
          <path fill="none" d="M0,-35.85 L 0 35.85" class="primitive"/>
        </g>
        <g transform="translate(34.25,46.46)" id="img-aed862f8-34">
          <path fill="none" d="M0,-35.85 L 0 35.85" class="primitive"/>
        </g>
        <g transform="translate(36.43,46.46)" id="img-aed862f8-35">
          <path fill="none" d="M0,-35.85 L 0 35.85" class="primitive"/>
        </g>
        <g transform="translate(38.36,46.46)" id="img-aed862f8-36">
          <path fill="none" d="M0,-35.85 L 0 35.85" class="primitive"/>
        </g>
        <g transform="translate(40.08,46.46)" id="img-aed862f8-37">
          <path fill="none" d="M0,-35.85 L 0 35.85" class="primitive"/>
        </g>
        <g transform="translate(51.4,46.46)" id="img-aed862f8-38">
          <path fill="none" d="M0,-35.85 L 0 35.85" class="primitive"/>
        </g>
        <g transform="translate(58.02,46.46)" id="img-aed862f8-39">
          <path fill="none" d="M0,-35.85 L 0 35.85" class="primitive"/>
        </g>
        <g transform="translate(62.72,46.46)" id="img-aed862f8-40">
          <path fill="none" d="M0,-35.85 L 0 35.85" class="primitive"/>
        </g>
        <g transform="translate(66.36,46.46)" id="img-aed862f8-41">
          <path fill="none" d="M0,-35.85 L 0 35.85" class="primitive"/>
        </g>
        <g transform="translate(69.34,46.46)" id="img-aed862f8-42">
          <path fill="none" d="M0,-35.85 L 0 35.85" class="primitive"/>
        </g>
        <g transform="translate(71.86,46.46)" id="img-aed862f8-43">
          <path fill="none" d="M0,-35.85 L 0 35.85" class="primitive"/>
        </g>
        <g transform="translate(74.04,46.46)" id="img-aed862f8-44">
          <path fill="none" d="M0,-35.85 L 0 35.85" class="primitive"/>
        </g>
        <g transform="translate(75.96,46.46)" id="img-aed862f8-45">
          <path fill="none" d="M0,-35.85 L 0 35.85" class="primitive"/>
        </g>
        <g transform="translate(77.68,46.46)" id="img-aed862f8-46">
          <path fill="none" d="M0,-35.85 L 0 35.85" class="primitive"/>
        </g>
        <g transform="translate(89,46.46)" id="img-aed862f8-47">
          <path fill="none" d="M0,-35.85 L 0 35.85" class="primitive"/>
        </g>
        <g transform="translate(95.63,46.46)" id="img-aed862f8-48">
          <path fill="none" d="M0,-35.85 L 0 35.85" class="primitive"/>
        </g>
        <g transform="translate(100.32,46.46)" id="img-aed862f8-49">
          <path fill="none" d="M0,-35.85 L 0 35.85" class="primitive"/>
        </g>
        <g transform="translate(103.97,46.46)" id="img-aed862f8-50">
          <path fill="none" d="M0,-35.85 L 0 35.85" class="primitive"/>
        </g>
        <g transform="translate(106.95,46.46)" id="img-aed862f8-51">
          <path fill="none" d="M0,-35.85 L 0 35.85" class="primitive"/>
        </g>
        <g transform="translate(109.46,46.46)" id="img-aed862f8-52">
          <path fill="none" d="M0,-35.85 L 0 35.85" class="primitive"/>
        </g>
        <g transform="translate(111.65,46.46)" id="img-aed862f8-53">
          <path fill="none" d="M0,-35.85 L 0 35.85" class="primitive"/>
        </g>
        <g transform="translate(113.57,46.46)" id="img-aed862f8-54">
          <path fill="none" d="M0,-35.85 L 0 35.85" class="primitive"/>
        </g>
        <g transform="translate(115.29,46.46)" id="img-aed862f8-55">
          <path fill="none" d="M0,-35.85 L 0 35.85" class="primitive"/>
        </g>
        <g transform="translate(126.61,46.46)" id="img-aed862f8-56">
          <path fill="none" d="M0,-35.85 L 0 35.85" class="primitive"/>
        </g>
        <g transform="translate(133.23,46.46)" id="img-aed862f8-57">
          <path fill="none" d="M0,-35.85 L 0 35.85" class="primitive"/>
        </g>
        <g transform="translate(137.93,46.46)" id="img-aed862f8-58">
          <path fill="none" d="M0,-35.85 L 0 35.85" class="primitive"/>
        </g>
        <g transform="translate(141.58,46.46)" id="img-aed862f8-59">
          <path fill="none" d="M0,-35.85 L 0 35.85" class="primitive"/>
        </g>
        <g transform="translate(144.55,46.46)" id="img-aed862f8-60">
          <path fill="none" d="M0,-35.85 L 0 35.85" class="primitive"/>
        </g>
        <g transform="translate(147.07,46.46)" id="img-aed862f8-61">
          <path fill="none" d="M0,-35.85 L 0 35.85" class="primitive"/>
        </g>
        <g transform="translate(149.25,46.46)" id="img-aed862f8-62">
          <path fill="none" d="M0,-35.85 L 0 35.85" class="primitive"/>
        </g>
        <g transform="translate(151.18,46.46)" id="img-aed862f8-63">
          <path fill="none" d="M0,-35.85 L 0 35.85" class="primitive"/>
        </g>
        <g transform="translate(152.9,46.46)" id="img-aed862f8-64">
          <path fill="none" d="M0,-35.85 L 0 35.85" class="primitive"/>
        </g>
      </g>
      <g class="plotpanel" id="img-aed862f8-65">
        <metadata>
          <boundingbox value="23.110833333333318mm 10.611666666666665mm 112.12249999999997mm 71.70333333333333mm"/>
          <unitbox value="0.548878437749536 2059.0812860026585 2.9814243705485524 -2118.162572005317"/>
        </metadata>
        <g stroke-width="0.3" fill="#000000" fill-opacity="0.000" class="geometry" id="img-aed862f8-66">
          <g class="color_Model" stroke-dasharray="none" stroke="#000000" id="img-aed862f8-67">
            <g transform="translate(70.2,80.31)" id="img-aed862f8-68">
              <path fill="none" d="M-67.6,0 L -67.32 0 -67.05 0 -66.78 0 -66.51 0 -66.24 0 -65.97 0 -65.7 0 -65.43 0 -65.16 0 -64.89 0 -64.62 0 -64.34 0 -64.07 0 -63.8 0 -63.53 0 -63.26 0 -62.99 0 -62.72 0 -62.45 0 -62.18 0 -61.91 0 -61.64 0 -61.36 0 -61.09 0 -60.82 0 -60.55 0 -60.28 0 -60.01 0 -59.74 0 -59.47 0 -59.2 0 -58.93 0 -58.66 0 -58.38 0 -58.11 0 -57.84 0 -57.57 0 -57.3 0 -57.03 0 -56.76 0 -56.49 0 -56.22 0 -55.95 0 -55.68 0 -55.4 0 -55.13 0 -54.86 0 -54.59 0 -54.32 0 -54.05 0 -53.78 0 -53.51 0 -53.24 0 -52.97 0 -52.7 0 -52.42 0 -52.15 0 -51.88 0 -51.61 0 -51.34 0 -51.07 0 -50.8 0 -50.53 0 -50.26 0 -49.99 0 -49.71 0 -49.44 0 -49.17 0 -48.9 0 -48.63 0 -48.36 0 -48.09 0 -47.82 0 -47.55 0 -47.28 0 -47.01 0 -46.73 0 -46.46 0 -46.19 0 -45.92 0 -45.65 0 -45.38 0 -45.11 0 -44.84 0 -44.57 0 -44.3 0 -44.03 0 -43.75 0 -43.48 0 -43.21 0 -42.94 0 -42.67 0 -42.4 0 -42.13 0 -41.86 0 -41.59 0 -41.32 0 -41.05 0 -40.77 0 -40.5 0 -40.23 0 -39.96 0 -39.69 0 -39.42 0 -39.15 0 -38.88 0 -38.61 0 -38.34 0 -38.07 0 -37.79 0 -37.52 0 -37.25 0 -36.98 0 -36.71 0 -36.44 0 -36.17 0 -35.9 0 -35.63 0 -35.36 0 -35.08 0 -34.81 0 -34.54 0 -34.27 0 -34 0 -33.73 0 -33.46 0 -33.19 0 -32.92 0 -32.65 0 -32.38 0 -32.1 0 -31.83 0 -31.56 0 -31.29 0 -31.02 0 -30.75 0 -30.48 0 -30.21 0 -29.94 0 -29.67 0 -29.4 0 -29.12 0 -28.85 0 -28.58 0 -28.31 0 -28.04 0 -27.77 0 -27.5 0 -27.23 0 -26.96 0 -26.69 0 -26.42 0 -26.14 0 -25.87 0 -25.6 0 -25.33 0 -25.06 0 -24.79 0 -24.52 0 -24.25 0 -23.98 0 -23.71 0 -23.44 0 -23.16 0 -22.89 0 -22.62 0 -22.35 0 -22.08 0 -21.81 0 -21.54 0 -21.27 0 -21 0 -20.73 0 -20.45 0 -20.18 0 -19.91 0 -19.64 0 -19.37 0 -19.1 0 -18.83 0 -18.56 0 -18.29 0 -18.02 0 -17.75 0 -17.47 0 -17.2 0 -16.93 0 -16.66 0 -16.39 0 -16.12 0 -15.85 0 -15.58 0 -15.31 0 -15.04 0 -14.77 0 -14.49 0 -14.22 0 -13.95 0 -13.68 0 -13.41 0 -13.14 0 -12.87 0 -12.6 0 -12.33 0 -12.06 0 -11.79 0 -11.51 0 -11.24 0 -10.97 0 -10.7 0 -10.43 0 -10.16 0 -9.89 0 -9.62 0 -9.35 0 -9.08 0 -8.81 0 -8.53 0 -8.26 0 -7.99 0 -7.72 0 -7.45 0 -7.18 0 -6.91 0 -6.64 0 -6.37 0 -6.1 0 -5.82 0 -5.55 0 -5.28 0 -5.01 0 -4.74 0 -4.47 0 -4.2 0 -3.93 0 -3.66 0 -3.39 0 -3.12 0 -2.84 0 -2.57 0 -2.3 0 -2.03 0 -1.76 0 -1.49 0 -1.22 0 -0.95 0 -0.68 0 -0.41 0 -0.14 0 0.14 0 0.41 0 0.68 0 0.95 0 1.22 0 1.49 0 1.76 0 2.03 0 2.3 0 2.57 0 2.84 0 3.12 0 3.39 0 3.66 0 3.93 0 4.2 0 4.47 0 4.74 0 5.01 0 5.28 0 5.55 0 5.82 0 6.1 0 6.37 0 6.64 0 6.91 0 7.18 0 7.45 0 7.72 0 7.99 0 8.26 0 8.53 0 8.81 0 9.08 0 9.35 0 9.62 0 9.89 0 10.16 0 10.43 0 10.7 0 10.97 0 11.24 0 11.51 0 11.79 0 12.06 0 12.33 0 12.6 0 12.87 0 13.14 0 13.41 0 13.68 0 13.95 0 14.22 0 14.49 0 14.77 0 15.04 0 15.31 0 15.58 0 15.85 0 16.12 0 16.39 0 16.66 0 16.93 0 17.2 0 17.47 0 17.75 0 18.02 0 18.29 0 18.56 0 18.83 0 19.1 0 19.37 0 19.64 0 19.91 0 20.18 0 20.45 0 20.73 0 21 0 21.27 0 21.54 0 21.81 0 22.08 0 22.35 0 22.62 0 22.89 0 23.16 0 23.44 0 23.71 0 23.98 0 24.25 0 24.52 0 24.79 0 25.06 0 25.33 0 25.6 0 25.87 0 26.14 0 26.42 0 26.69 0 26.96 0 27.23 0 27.5 0 27.77 0 28.04 0 28.31 0 28.58 0 28.85 0 29.12 0 29.4 0 29.67 0 29.94 0 30.21 0 30.48 0 30.75 0 31.02 0 31.29 0 31.56 0 31.83 0 32.1 0 32.38 0 32.65 0 32.92 0 33.19 0 33.46 0 33.73 0 34 0 34.27 0 34.54 0 34.81 0 35.08 0 35.36 0 35.63 0 35.9 0 36.17 0 36.44 0 36.71 0 36.98 0 37.25 0 37.52 0 37.79 0 38.07 0 38.34 0 38.61 0 38.88 0 39.15 0 39.42 0 39.69 0 39.96 0 40.23 0 40.5 0 40.77 0 41.05 0 41.32 0 41.59 0 41.86 0 42.13 0 42.4 0 42.67 0 42.94 0 43.21 0 43.48 0 43.75 0 44.03 0 44.3 0 44.57 0 44.84 0 45.11 0 45.38 0 45.65 0 45.92 0 46.19 0 46.46 0 46.73 0 47.01 0 47.28 0 47.55 0 47.82 0 48.09 0 48.36 0 48.63 0 48.9 0 49.17 0 49.44 0 49.71 0 49.99 0 50.26 0 50.53 0 50.8 0 51.07 0 51.34 0 51.61 0 51.88 0 52.15 0 52.42 0 52.7 0 52.97 0 53.24 0 53.51 0 53.78 0 54.05 0 54.32 0 54.59 0 54.86 0 55.13 0 55.4 0 55.68 0 55.95 0 56.22 0 56.49 0 56.76 0 57.03 0 57.3 0 57.57 0 57.84 0 58.11 0 58.38 0 58.66 0 58.93 0 59.2 0 59.47 0 59.74 0 60.01 0 60.28 0 60.55 0 60.82 0 61.09 0 61.36 0 61.64 0 61.91 0 62.18 0 62.45 0 62.72 0 62.99 0 63.26 0 63.53 0 63.8 0 64.07 0 64.34 0 64.62 0 64.89 0 65.16 0 65.43 0 65.7 0 65.97 0 66.24 0 66.51 0 66.78 0 67.05 0 67.32 0 67.6 0" class="primitive"/>
            </g>
          </g>
        </g>
        <g stroke-width="0.3" class="geometry" fill-opacity="0.2" fill="#4F94CD" id="img-aed862f8-69">
          <g transform="translate(110.36,79.11)" id="img-aed862f8-70">
            <path d="M22.75,1.2 L 18.45 1.2 14.17 1.2 10.13 1.2 5.53 1.2 -0.55 1.19 -5.59 1.14 -9.53 1.12 -14.73 0.84 -19.07 -1.52 -21.56 -5.62 -21.56 -9.59 -19.07 -3.45 -14.73 0.55 -9.53 1.07 -5.59 1.11 -0.55 1.18 5.53 1.2 10.13 1.2 14.17 1.2 18.45 1.2 22.75 1.2 z" class="primitive"/>
          </g>
        </g>
        <g stroke-width="0.3" fill="#000000" fill-opacity="0.000" class="geometry" id="img-aed862f8-71">
          <g class="color_OPC" stroke-dasharray="none" stroke="#4F94CD" id="img-aed862f8-72">
            <g transform="translate(110.36,79.13)" id="img-aed862f8-73">
              <path fill="none" d="M-21.56,-7.54 L -19.07 -2.45 -14.73 0.69 -9.53 1.08 -5.59 1.12 -0.55 1.17 5.53 1.18 10.13 1.19 14.17 1.19 18.45 1.19 22.75 1.19" class="primitive"/>
            </g>
          </g>
        </g>
        <g stroke-width="0.3" class="geometry" fill-opacity="0.2" fill="#8B0000" id="img-aed862f8-74">
          <g transform="translate(75.94,51.87)" id="img-aed862f8-75">
            <path d="M13.97,16.78 L 13.36 15.94 12.75 14.53 12.14 10.28 11.54 11.75 10.94 13.43 10.35 12.65 9.77 8.55 9.18 5.22 8.6 7.2 8.03 6.7 7.45 5.58 6.88 2.76 6.32 0.05 5.76 3.79 5.2 -0.09 4.64 -2.77 4.09 -5.64 3.54 -7.12 2.99 -11.86 2.45 -11.63 1.9 -17.8 1.37 -20.78 0.83 -23.7 0.29 -30.09 -0.24 -32.43 -0.77 -23.57 -1.3 -26.99 -1.83 -32.78 -2.35 -26.17 -2.87 -27.44 -3.4 -24.04 -3.91 -22.58 -4.43 -19.39 -4.95 -17.6 -5.46 -13.59 -5.98 -17.14 -6.49 -13.38 -7 -7.27 -7.51 -12.43 -8.02 -8.23 -8.52 -6.84 -9.03 -4.33 -9.53 0.4 -10.04 -0.59 -10.54 -3.94 -11.04 2.26 -11.54 4.92 -12.04 8.64 -12.54 5.93 -13.03 5.41 -13.03 16.81 -12.54 15.93 -12.04 15.69 -11.54 13.65 -11.04 11.77 -10.54 13.58 -10.04 15.39 -9.53 13.96 -9.03 10.83 -8.52 8.43 -8.02 4.59 -7.51 4.92 -7 6.3 -6.49 4.1 -5.98 3.88 -5.46 -2.94 -4.95 -6.06 -4.43 -9.07 -3.91 -10.56 -3.4 -9.63 -2.87 -10.41 -2.35 -16.08 -1.83 -9.73 -1.3 -12.68 -0.77 -9.54 -0.24 -11.16 0.29 -9.74 0.83 -11.87 1.37 -7.11 1.9 -5.19 2.45 2.86 2.99 0.85 3.54 1.59 4.09 4.09 4.64 7.69 5.2 13.39 5.76 13.6 6.32 11.62 6.88 13.79 7.45 15.02 8.03 17.68 8.6 16 9.18 16.68 9.77 15.72 10.35 18.64 10.94 18.51 11.54 18.79 12.14 21.57 12.75 18.09 13.36 22.57 13.97 22.65 z" class="primitive"/>
          </g>
        </g>
        <g stroke-width="0.3" fill="#000000" fill-opacity="0.000" class="geometry" id="img-aed862f8-76">
          <g class="color_SMPS2" stroke-dasharray="none" stroke="#8B0000" id="img-aed862f8-77">
            <g transform="translate(75.94,52.12)" id="img-aed862f8-78">
              <path fill="none" d="M-13.03,11.8 L -12.54 10.4 -12.04 12.39 -11.54 9.16 -11.04 6.39 -10.54 7.39 -10.04 8.84 -9.53 7.58 -9.03 3.25 -8.52 0.97 -8.02 -1.88 -7.51 -4.14 -7 -1.46 -6.49 -6.03 -5.98 -7.83 -5.46 -8.38 -4.95 -12.98 -4.43 -13.97 -3.91 -15.11 -3.4 -17.49 -2.87 -19.54 -2.35 -20.77 -1.83 -19.83 -1.3 -20.09 -0.77 -17.1 -0.24 -20.22 0.29 -19.82 0.83 -17.24 1.37 -13.43 1.9 -10.14 2.45 -5.32 2.99 -5.42 3.54 -3.41 4.09 -0.6 4.64 2.28 5.2 6.19 5.76 7.04 6.32 6.84 6.88 8.36 7.45 11.04 8.03 12.39 8.6 10.35 9.18 11.93 9.77 11.49 10.35 15.46 10.94 15.64 11.54 15.13 12.14 15.19 12.75 16.6 13.36 18.7 13.97 19.41" class="primitive"/>
            </g>
          </g>
        </g>
        <g stroke-width="0.3" class="geometry" fill-opacity="0.2" fill="#CD950C" id="img-aed862f8-79">
          <g transform="translate(44.95,73.55)" id="img-aed862f8-80">
            <path d="M19.39,-16.59 L 18.9 -14.61 18.4 -14.11 17.9 -13.11 17.4 -10.8 16.91 -9.59 16.41 -5.14 15.92 -6.06 15.43 -5.06 14.93 -5.3 14.44 -4.44 13.95 -1.56 13.46 -3.2 12.97 -0.97 12.48 0.05 11.99 0.8 11.51 0.26 11.02 1.52 10.53 3.93 10.04 1.87 9.56 2.58 9.07 3.53 8.59 1.92 8.1 2.77 7.62 2.4 7.14 3.97 6.65 3.46 6.17 4.54 5.69 5.08 5.21 5.34 4.72 4.92 4.24 5.06 3.76 5 3.28 5.66 2.8 5.3 2.32 5.25 1.84 4.57 1.36 5.19 0.88 4.75 0.4 5.73 -0.08 6.02 -0.55 5.65 -1.03 6.05 -1.51 4.42 -1.99 5.77 -2.47 4.35 -2.94 5.69 -3.42 5.68 -3.9 5.5 -4.37 5.4 -4.85 4.59 -5.33 5.41 -5.8 5.94 -6.28 5.85 -6.75 6.28 -7.23 4.76 -7.7 6.2 -8.18 6.17 -8.66 6.19 -9.13 3.89 -9.6 5.54 -10.08 6.04 -10.55 6.1 -11.03 6.77 -11.5 6.77 -11.98 6.77 -12.45 6.77 -12.92 6.77 -13.4 5.96 -13.87 6.77 -14.35 6.77 -14.82 6.77 -15.29 6.77 -15.77 6.77 -16.24 6.77 -16.71 6.77 -17.19 6.77 -17.66 6.77 -18.13 6.77 -18.6 6.77 -19.08 6.51 -19.08 1.95 -18.6 -4.34 -18.13 2.14 -17.66 0.19 -17.19 0.48 -16.71 4.67 -16.24 0.79 -15.77 0.38 -15.29 3.22 -14.82 2.32 -14.35 3.41 -13.87 2.62 -13.4 1.12 -12.92 2.25 -12.45 -2.99 -11.98 -0.61 -11.5 0.53 -11.03 0.05 -10.55 1.55 -10.08 1.64 -9.6 -2.22 -9.13 -1.47 -8.66 0.28 -8.18 0.17 -7.7 0.83 -7.23 -1.03 -6.75 -2.55 -6.28 0.61 -5.8 0.28 -5.33 2.17 -4.85 -0.55 -4.37 -0.31 -3.9 -0.62 -3.42 1.73 -2.94 0.72 -2.47 1.92 -1.99 -0.47 -1.51 0.21 -1.03 1.1 -0.55 -0.3 -0.08 0.56 0.4 3.31 0.88 2.14 1.36 1.69 1.84 0.28 2.32 -0.14 2.8 0.89 3.28 1.26 3.76 -0.79 4.24 1.47 4.72 -0.51 5.21 -0.26 5.69 0.1 6.17 -0.97 6.65 -0.27 7.14 -1.1 7.62 -1.43 8.1 -0.61 8.59 -1.6 9.07 -0.34 9.56 -2.29 10.04 -2.81 10.53 -2.2 11.02 -3.62 11.51 -4.2 11.99 -5.91 12.48 -5.18 12.97 -8.42 13.46 -7.7 13.95 -8.09 14.44 -13.41 14.93 -11.05 15.43 -14.77 15.92 -13.64 16.41 -14.38 16.91 -17.29 17.4 -20.28 17.9 -21.37 18.4 -24.55 18.9 -27.91 19.39 -29.61 z" class="primitive"/>
          </g>
        </g>
        <g stroke-width="0.3" fill="#000000" fill-opacity="0.000" class="geometry" id="img-aed862f8-81">
          <g class="color_SMPS1" stroke-dasharray="none" stroke="#CD950C" id="img-aed862f8-82">
            <g transform="translate(44.95,73.9)" id="img-aed862f8-83">
              <path fill="none" d="M-19.08,4.9 L -18.6 3.25 -18.13 4.57 -17.66 5.09 -17.19 4.63 -16.71 5.21 -16.24 4.59 -15.77 4.75 -15.29 5.08 -14.82 4.61 -14.35 4.81 -13.87 5.03 -13.4 3.33 -12.92 4.98 -12.45 2.73 -11.98 3.46 -11.5 3.7 -11.03 4.16 -10.55 3.8 -10.08 3.44 -9.6 2.24 -9.13 1.48 -8.66 3.45 -8.18 2.88 -7.7 3.53 -7.23 1.58 -6.75 2.29 -6.28 3.56 -5.8 3.47 -5.33 3.24 -4.85 1.88 -4.37 2.84 -3.9 2.54 -3.42 3.76 -2.94 3.66 -2.47 2.81 -1.99 2.9 -1.51 2.71 -1.03 2.9 -0.55 2.94 -0.08 3.29 0.4 4.19 0.88 2.74 1.36 3.12 1.84 2.58 2.32 2.32 2.8 2.79 3.28 2.99 3.76 1.87 4.24 3.07 4.72 2.24 5.21 1.82 5.69 2.3 6.17 1.15 6.65 0.92 7.14 1.25 7.62 0.5 8.1 0.23 8.59 -0 9.07 0.62 9.56 -0.13 10.04 -0.7 10.53 -0.19 11.02 -1.48 11.51 -1.86 11.99 -2.51 12.48 -2.93 12.97 -4.19 13.46 -5.66 13.95 -6.41 14.44 -8.59 14.93 -8.24 15.43 -9.39 15.92 -10.36 16.41 -11.22 16.91 -13.9 17.4 -14.52 17.9 -16.12 18.4 -19.46 18.9 -21.06 19.39 -23.81" class="primitive"/>
            </g>
          </g>
        </g>
      </g>
    </g>
  </g>
  <g class="guide ylabels" font-size="2.82" font-family="'PT Sans Caption','Helvetica Neue','Helvetica',sans-serif" fill="#6C606B" id="img-aed862f8-84">
    <g transform="translate(22.11,80.32)" id="img-aed862f8-85">
      <g class="primitive">
        <text text-anchor="end" dy="0.35em">0</text>
      </g>
    </g>
    <g transform="translate(22.11,63.39)" id="img-aed862f8-86">
      <g class="primitive">
        <text text-anchor="end" dy="0.35em">500</text>
      </g>
    </g>
    <g transform="translate(22.11,46.46)" id="img-aed862f8-87">
      <g class="primitive">
        <text text-anchor="end" dy="0.35em">1000</text>
      </g>
    </g>
    <g transform="translate(22.11,29.54)" id="img-aed862f8-88">
      <g class="primitive">
        <text text-anchor="end" dy="0.35em">1500</text>
      </g>
    </g>
    <g transform="translate(22.11,12.61)" id="img-aed862f8-89">
      <g class="primitive">
        <text text-anchor="end" dy="0.35em">2000</text>
      </g>
    </g>
  </g>
  <g font-size="3.88" font-family="'PT Sans','Helvetica Neue','Helvetica',sans-serif" fill="#564A55" stroke="#000000" stroke-opacity="0.000" id="img-aed862f8-90">
    <g transform="translate(9.71,44.46)" id="img-aed862f8-91">
      <g class="primitive">
        <text text-anchor="middle" dy="0.35em" transform="rotate(-90,0, 2)">dN/dlnD (cm <tspan style="dominant-baseline:inherit" dy="-0.6em" font-size="83%">-3</tspan><tspan dy="0.498000em">)</tspan></text>
      </g>
    </g>
  </g>
  <g font-size="3.88" font-family="'PT Sans','Helvetica Neue','Helvetica',sans-serif" fill="#564A55" stroke="#000000" stroke-opacity="0.000" id="img-aed862f8-92">
    <g transform="translate(79.17,5)" id="img-aed862f8-93">
      <g class="primitive">
        <text text-anchor="middle" dy="0.6em">Composite Size Distribtion 2019-11-24T05:00:00</text>
      </g>
    </g>
  </g>
</g>
<defs>
  <clipPath id="img-aed862f8-17">
    <path d="M23.11,10.61 L 135.23 10.61 135.23 82.32 23.11 82.32" />
  </clipPath>
</defs>
</svg>
